<?xml version="1.0" encoding="utf-8"?>
<!-- Generator: Adobe Illustrator 23.0.1, SVG Export Plug-In . SVG Version: 6.00 Build 0)  -->
<svg version="1.1" xmlns="http://www.w3.org/2000/svg" xmlns:xlink="http://www.w3.org/1999/xlink" x="0px" y="0px"
	 viewBox="0 0 800 600" style="enable-background:new 0 0 800 600;" xml:space="preserve">
<style type="text/css">
	.st0{fill:none;}
	.st1{fill:#FFFFFF;}
</style>
<g id="Layer_1">
	<rect class="st0" width="800" height="600"/>
</g>
<g id="Layer_2">
	<path d="M737.5,141.2v317.5c0,26.5-21.5,48.1-48.1,48.1H110.6c-26.5,0-48.1-21.5-48.1-48.1V141.2c0-26.5,21.5-48.1,48.1-48.1h310.9
		c0,0,0,0,0,0v272.6c0,6.9,5.6,12.4,12.4,12.4h73c5.5,0,10-4.4,10.2-9.8c0.2-5.7-4.7-10.3-10.3-10.3h-53.4c-5,0-9-4-9-9V93.2
		c0,0,0,0,0,0h245.2C716,93.2,737.5,114.7,737.5,141.2z"/>
</g>
<g id="Layer_3">
	<g>
		<path class="st1" d="M338.7,273.7l-15.3-5.9c-18.5-7.5-28.2-16.7-28.2-31.2c0-17.2,13.7-27.9,34.9-27.9c18.5,0,28.8,8.6,36.3,20.4
			c1.2,1.6,2.6,3,4.3,4c1.7,1,3.6,1.6,5.9,1.6c5.6,0,9.7-4,9.7-9.1c0-3.5-1.6-6.5-4.8-11c-9.4-14-26.3-26.3-51.9-26.3
			c-31.7,0-57.5,19.1-57.5,48.4c0,25.3,19.3,39.2,45.9,49.7L335,293c21,8.1,36.5,15,36.5,34.7c0,22.8-21.8,31.7-41.6,31.7
			c-18.3,0-33.9-8.1-42.7-24.2c-1.2-1.9-2.7-3.6-4.5-4.9c-1.9-1.3-4.1-2.1-6.8-2.1c-6.2,0-9.7,4.8-9.7,10.2c0,4,2.4,7.5,3.8,9.9
			c11.3,20.7,35.7,31.7,59.9,31.7c30.9,0,64.8-18,64.8-52.4C394.6,299.5,373.4,287.1,338.7,273.7z"/>
	</g>
</g>
</svg>
