<?xml version="1.0" encoding="utf-8"?>
<!-- Generator: Adobe Illustrator 23.0.1, SVG Export Plug-In . SVG Version: 6.00 Build 0)  -->
<svg version="1.1" xmlns="http://www.w3.org/2000/svg" xmlns:xlink="http://www.w3.org/1999/xlink" x="0px" y="0px"
	 viewBox="0 0 1920 1080" style="enable-background:new 0 0 1920 1080;" xml:space="preserve">
<style type="text/css">
	.st0{fill:#121212;}
	.st1{opacity:0.44;fill:url(#SVGID_1_);}
	.st2{opacity:0.44;fill:url(#SVGID_2_);}
	.st3{opacity:0.51;fill:url(#SVGID_3_);}
	.st4{opacity:0.26;fill:url(#SVGID_4_);fill-opacity:0.53;stroke:#000000;stroke-miterlimit:10;}
	.st5{fill:url(#SVGID_5_);fill-opacity:0.89;}
</style>
<g id="Layer_1">
	<g>
		<rect x="0.5" y="0.5" class="st0" width="1919" height="1079"/>
		<path d="M1919,1v1078H1V1H1919 M1920,0H0v1080h1920V0L1920,0z"/>
	</g>
</g>
<g id="Layer_6">
	<linearGradient id="SVGID_1_" gradientUnits="userSpaceOnUse" x1="1700.8403" y1="300.5049" x2="1749.8003" y2="758.4249">
		<stop  offset="0" style="stop-color:#000000"/>
		<stop  offset="1" style="stop-color:#000000"/>
	</linearGradient>
	<path class="st1" d="M1532.8,1079.5L1533,524c0,0-11-178,59-215s161-51,190-103s71-151,98-172s40-34,40-34v1079L1532.8,1079.5"/>
	<linearGradient id="SVGID_2_" gradientUnits="userSpaceOnUse" x1="1700.8403" y1="300.5049" x2="1749.8003" y2="758.4249">
		<stop  offset="0" style="stop-color:#000000"/>
		<stop  offset="1" style="stop-color:#000000"/>
	</linearGradient>
	<path class="st2" d="M1532.8,1079.5L1533,524c0,0-11-178,59-215s161-51,190-103s71-151,98-172s40-34,40-34v1079L1532.8,1079.5"/>
</g>
<g id="Layer_4">
	<linearGradient id="SVGID_3_" gradientUnits="userSpaceOnUse" x1="0" y1="714.8687" x2="1920" y2="714.8687">
		<stop  offset="0" style="stop-color:#101010"/>
		<stop  offset="1" style="stop-color:#020202"/>
	</linearGradient>
	<path class="st3" d="M0,1079c0,0,865-521,870-521s337.7-215.8,648-207c317,9,402,56.2,402,56.2V1079H0"/>
</g>
<g id="Layer_3">
	<linearGradient id="SVGID_4_" gradientUnits="userSpaceOnUse" x1="478.5077" y1="1227.4399" x2="1540.374" y2="-214.9466">
		<stop  offset="0" style="stop-color:#171717"/>
		<stop  offset="0.4167" style="stop-color:#121212"/>
		<stop  offset="0.9271" style="stop-color:#030303"/>
		<stop  offset="1" style="stop-color:#000000"/>
	</linearGradient>
	<path class="st4" d="M0,243.1c0,0,486.5-16.6,667.5,324.4s402,309,466,296s657.1,216,657.1,216H-0.5L0,243.1z"/>
</g>
<g id="Layer_5">
	<linearGradient id="SVGID_5_" gradientUnits="userSpaceOnUse" x1="-0.5" y1="755.75" x2="1425.067" y2="755.75">
		<stop  offset="0" style="stop-color:#101010"/>
		<stop  offset="1" style="stop-color:#070707"/>
	</linearGradient>
	<path class="st5" d="M-0.5,784.9c0,0,458.5-365.5,721.5-352.6s638,288.1,676,379.3s26.4,267.9,26.4,267.9L0,1079.1L-0.5,784.9"/>
</g>
<g id="Layer_2">
	<path d="M0,643.4c0,0,650.5,83.1,1076.5-44.9s784-150.7,843.5-140.9c-0.5,21.9-0.5,621.9-0.5,621.9H-0.5L0,643.4z"/>
</g>
</svg>
