<?xml version="1.0" encoding="utf-8"?>
<!-- Generator: Adobe Illustrator 23.0.1, SVG Export Plug-In . SVG Version: 6.00 Build 0)  -->
<svg version="1.1" id="Layer_1" xmlns="http://www.w3.org/2000/svg" xmlns:xlink="http://www.w3.org/1999/xlink" x="0px" y="0px"
	 viewBox="0 0 512 512" style="enable-background:new 0 0 512 512;" xml:space="preserve">
<style type="text/css">
	.st0{stroke:#FFFFFF;stroke-width:3;stroke-miterlimit:10;}
	.st1{fill:#E34E26;}
	.st2{fill:#EF662A;}
	.st3{fill:#FFFFFF;}
	.st4{fill:#EBEBEB;}
</style>
<g>
	<g>
		<g>
			<path class="st0" d="M108.1,2.9h23.1v22.8h21.1V2.9h23.1v69h-23.1V48.8h-21.1v23.1h-23.1L108.1,2.9L108.1,2.9z"/>
			<path class="st0" d="M205.7,25.8h-20.3V2.9h63.7v22.9h-20.3v46.1h-23.1L205.7,25.8L205.7,25.8z"/>
			<path class="st0" d="M259.2,2.9h24.1l14.8,24.3l14.8-24.3h24.1v69h-23V37.7l-15.9,24.5h-0.4l-15.9-24.5v34.2h-22.6V2.9z"/>
			<path class="st0" d="M348.4,2.9h23.1v46.2h32.5v22.8h-55.5V2.9z"/>
		</g>
	</g>
</g>
<g id="Guides_to_delete">
	<g>
		<polygon class="st1" points="107.1,470.7 74,99.3 437.7,99.3 404.5,470.8 255.8,512 		"/>
		<polygon class="st1" points="107.1,469.3 74,97.9 437.7,97.9 404.5,469.3 255.8,510.6 		"/>
		<polygon class="st2" points="255.9,129.7 255.9,480.4 376.2,447.1 404.5,129.7 		"/>
		<polygon class="st3" points="141.8,175.2 154,313 311.9,313 306.6,372.1 255.8,385.8 205.1,372.1 201.7,334.1 155.9,334.1 
			162.5,407.3 255.8,433.2 349.2,407.3 361.7,267.4 195.7,267.4 191.5,220.8 365.7,220.8 365.9,220.8 370,175.2 		"/>
		<g>
			<polygon class="st4" points="255.9,175.2 141.8,175.2 154,313 255.9,313 255.9,267.4 195.7,267.4 191.5,220.8 255.9,220.8 			"/>
			<polygon class="st4" points="255.9,385.8 255.8,385.8 205.1,372.1 201.7,334.1 155.9,334.1 162.5,407.3 255.8,433.2 255.9,433.2 
							"/>
		</g>
	</g>
</g>
</svg>
